# xmcd CD database file
#
# Track frame offsets:
#	150
#	18710
#	35017
#	53222
#	69320
#	86405
#	102762
#	118322
#	137960
#	152122
#
# Disc length: 2231 seconds
#
# Revision: 2
# Processed by: cddbd v1.5.2PL0 Copyright (c) Steve Scherf et al.
# Submitted via: CDex 1.60beta1
#
DISCID=8908b50a
DTITLE=Charlie Major - The Other Side
DYEAR=1993
DGENRE=Country
TTITLE0=I'm Gonna Drive You Out Of My Mind
TTITLE1=I'm Somebody
TTITLE2=It Can't Happen To Me
TTITLE3=I'm Here
TTITLE4=Running In The Red
TTITLE5=Life's Too Short
TTITLE6=Nobody Gets Too Much Love
TTITLE7=Walk Away
TTITLE8=The Other Side
TTITLE9=I'll See You In My Dreams
EXTD=YEAR: 1993
EXTT0=
EXTT1=
EXTT2=
EXTT3=
EXTT4=
EXTT5=
EXTT6=
EXTT7=
EXTT8=
EXTT9=
PLAYORDER=
